<svg xmlns="http://www.w3.org/2000/svg" viewBox="0 0 128 128">
  <!-- Background -->
  <rect width="128" height="128" fill="#f0f4f8"/>
  
  <!-- Document/File shape -->
  <path d="M 32 20 L 32 108 Q 32 112 36 112 L 96 112 Q 100 112 100 108 L 100 44 L 72 16 Q 70 14 68 16 L 68 44 Q 68 48 64 48 L 36 48 Q 32 48 32 44 Z" fill="#2563eb" opacity="0.1" stroke="#2563eb" stroke-width="1.5"/>
  
  <!-- Main document -->
  <path d="M 32 20 L 32 108 Q 32 112 36 112 L 96 112 Q 100 112 100 108 L 100 44 L 72 16 Q 70 14 68 16 L 68 44 Q 68 48 64 48 L 36 48 Q 32 48 32 44 Z" fill="white" stroke="#2563eb" stroke-width="2"/>
  
  <!-- Top corner fold -->
  <polygon points="68,16 100,44 68,44" fill="#2563eb"/>
  
  <!-- ACH/Data lines (left) -->
  <line x1="42" y1="60" x2="62" y2="60" stroke="#1e40af" stroke-width="1.5" stroke-linecap="round"/>
  <line x1="42" y1="72" x2="62" y2="72" stroke="#1e40af" stroke-width="1.5" stroke-linecap="round"/>
  <line x1="42" y1="84" x2="62" y2="84" stroke="#1e40af" stroke-width="1.5" stroke-linecap="round"/>
  
  <!-- ACH/Data indicators (right - batch markers) -->
  <circle cx="75" cy="60" r="2.5" fill="#0ea5e9"/>
  <circle cx="85" cy="60" r="2.5" fill="#0ea5e9"/>
  <circle cx="75" cy="72" r="2.5" fill="#06b6d4"/>
  <circle cx="85" cy="72" r="2.5" fill="#06b6d4"/>
  <circle cx="75" cy="84" r="2.5" fill="#10b981"/>
  <circle cx="85" cy="84" r="2.5" fill="#10b981"/>
  
  <!-- Connecting lines between data -->
  <polyline points="62,60 68,60 68,54" stroke="#0ea5e9" stroke-width="1" fill="none" stroke-linecap="round"/>
  <polyline points="62,72 68,72 68,66" stroke="#06b6d4" stroke-width="1" fill="none" stroke-linecap="round"/>
  <polyline points="62,84 68,84 68,78" stroke="#10b981" stroke-width="1" fill="none" stroke-linecap="round"/>
  
  <!-- Bottom accent bar (representing parsed/processed data) -->
  <rect x="36" y="100" width="58" height="2" fill="#0ea5e9" rx="1"/>
  
  <!-- Decorative element: small batch indicator -->
  <g opacity="0.6">
    <rect x="42" y="94" width="4" height="4" fill="#0ea5e9" rx="0.5"/>
    <rect x="50" y="94" width="4" height="4" fill="#06b6d4" rx="0.5"/>
    <rect x="58" y="94" width="4" height="4" fill="#10b981" rx="0.5"/>
    <rect x="66" y="94" width="4" height="4" fill="#06b6d4" rx="0.5"/>
    <rect x="74" y="94" width="4" height="4" fill="#0ea5e9" rx="0.5"/>
  </g>
</svg>